<svg width="38" height="24" viewBox="0 0 38 24" fill="none" xmlns="http://www.w3.org/2000/svg">
<rect width="37.5" height="24" rx="3" fill="#0F3560"/>
<path d="M22.0307 17.8974H15.4688V6.10452H22.0307V17.8974Z" fill="#6C6BBD"/>
<path d="M15.8891 12C15.8891 9.60776 17.0092 7.47683 18.7534 6.10357C17.4779 5.09937 15.8681 4.5 14.1187 4.5C9.97696 4.5 6.61963 7.85781 6.61963 12C6.61963 16.1422 9.97696 19.5 14.1187 19.5C15.8681 19.5 17.4779 18.9006 18.7534 17.8964C17.0092 16.5232 15.8891 14.3922 15.8891 12Z" fill="#EB001B"/>
<path d="M30.8804 12C30.8804 16.1422 27.523 19.5 23.3813 19.5C21.6318 19.5 20.0221 18.9006 18.7461 17.8964C20.4908 16.5232 21.6109 14.3922 21.6109 12C21.6109 9.60776 20.4908 7.47683 18.7461 6.10357C20.0221 5.09937 21.6318 4.5 23.3813 4.5C27.523 4.5 30.8804 7.85781 30.8804 12Z" fill="#0099DF"/>
<path d="M25.5117 10.7178C25.619 10.7178 25.7734 10.7383 25.8913 10.7847L25.727 11.287C25.6144 11.2406 25.5017 11.2254 25.3937 11.2254C25.0452 11.2254 24.8709 11.4507 24.8709 11.8556V13.2298H24.3375V10.7794H24.8656V11.0769C25.0041 10.8615 25.2042 10.7178 25.5117 10.7178V10.7178ZM23.5413 11.2664H22.6699V12.3737C22.6699 12.6195 22.7567 12.7838 23.0237 12.7838C23.1622 12.7838 23.3365 12.7375 23.4949 12.6454L23.6486 13.1013C23.4797 13.2192 23.2133 13.2914 22.9827 13.2914C22.3519 13.2914 22.1318 12.9528 22.1318 12.3837V11.2664H21.6342V10.7794H22.1318V10.0359H22.6699V10.7794H23.5413V11.2664ZM16.7176 11.7892C16.7745 11.4354 16.9893 11.1943 17.3689 11.1943C17.7122 11.1943 17.9328 11.4096 17.9892 11.7892H16.7176ZM18.5431 12.0046C18.5378 11.2406 18.066 10.7178 17.3789 10.7178C16.6613 10.7178 16.159 11.2406 16.159 12.0046C16.159 12.7833 16.6818 13.2908 17.4153 13.2908C17.7844 13.2908 18.1224 13.1987 18.4199 12.9475L18.1582 12.5526C17.9534 12.7169 17.6917 12.8091 17.4458 12.8091C17.1025 12.8091 16.7898 12.6501 16.7129 12.2094H18.5325C18.5378 12.1425 18.5431 12.0762 18.5431 12.0046V12.0046ZM20.8855 11.4049C20.737 11.3122 20.4349 11.1943 20.1221 11.1943C19.8299 11.1943 19.6556 11.3022 19.6556 11.4818C19.6556 11.6455 19.8399 11.6918 20.0705 11.7224L20.3216 11.7581C20.855 11.8356 21.1777 12.0609 21.1777 12.4916C21.1777 12.9581 20.7676 13.2914 20.0605 13.2914C19.6603 13.2914 19.2912 13.1887 18.999 12.9734L19.2501 12.5579C19.4297 12.6964 19.6967 12.8143 20.0658 12.8143C20.4296 12.8143 20.6244 12.707 20.6244 12.5169C20.6244 12.379 20.4859 12.3015 20.1937 12.261L19.9425 12.2252C19.3939 12.1478 19.0964 11.9019 19.0964 11.5023C19.0964 11.0153 19.4966 10.7178 20.1168 10.7178C20.5064 10.7178 20.8603 10.8052 21.1161 10.9742L20.8855 11.4049ZM27.4604 11.2242C27.3506 11.2242 27.2491 11.2435 27.1546 11.2817C27.0608 11.3204 26.9792 11.3744 26.9106 11.4436C26.8419 11.5129 26.7879 11.5962 26.7486 11.693C26.7093 11.7898 26.6899 11.8966 26.6899 12.0128C26.6899 12.1296 26.7093 12.2358 26.7486 12.3326C26.7879 12.4294 26.8419 12.5127 26.9106 12.582C26.9792 12.6512 27.0608 12.7052 27.1546 12.7439C27.2491 12.7827 27.3506 12.8014 27.4604 12.8014C27.5701 12.8014 27.6722 12.7827 27.7661 12.7439C27.8605 12.7052 27.9427 12.6512 28.0113 12.582C28.0812 12.5127 28.1352 12.4294 28.1751 12.3326C28.2144 12.2358 28.2337 12.1296 28.2337 12.0128C28.2337 11.8966 28.2144 11.7898 28.1751 11.693C28.1352 11.5962 28.0812 11.5129 28.0113 11.4436C27.9427 11.3744 27.8605 11.3204 27.7661 11.2817C27.6722 11.2435 27.5701 11.2242 27.4604 11.2242V11.2242ZM27.4604 10.7178C27.6505 10.7178 27.8265 10.7506 27.9885 10.817C28.1504 10.8827 28.2907 10.9736 28.4086 11.0892C28.5271 11.2048 28.6193 11.3415 28.6861 11.4988C28.753 11.6566 28.7865 11.828 28.7865 12.0128C28.7865 12.1976 28.753 12.369 28.6861 12.5268C28.6193 12.6841 28.5271 12.8214 28.4086 12.937C28.2907 13.0526 28.1504 13.1429 27.9885 13.2093C27.8265 13.275 27.6505 13.3078 27.4604 13.3078C27.2702 13.3078 27.0942 13.275 26.9323 13.2093C26.7703 13.1429 26.6312 13.0526 26.5139 12.937C26.3965 12.8214 26.3044 12.6841 26.2375 12.5268C26.1706 12.369 26.1372 12.1976 26.1372 12.0128C26.1372 11.828 26.1706 11.6566 26.2375 11.4988C26.3044 11.3415 26.3965 11.2048 26.5139 11.0892C26.6312 10.9736 26.7703 10.8827 26.9323 10.817C27.0942 10.7506 27.2702 10.7178 27.4604 10.7178V10.7178ZM13.603 12.0046C13.603 11.5739 13.8852 11.2201 14.3464 11.2201C14.7871 11.2201 15.0846 11.5586 15.0846 12.0046C15.0846 12.4505 14.7871 12.7885 14.3464 12.7885C13.8852 12.7885 13.603 12.4353 13.603 12.0046V12.0046ZM15.5869 12.0046V10.7794H15.0541V11.0769C14.8845 10.8563 14.6287 10.7178 14.2801 10.7178C13.593 10.7178 13.0549 11.2559 13.0549 12.0046C13.0549 12.7527 13.593 13.2914 14.2801 13.2914C14.6287 13.2914 14.8845 13.1529 15.0541 12.9323V13.2298H15.5869V12.0046ZM12.5832 13.2298V11.6918C12.5832 11.1127 12.2141 10.7231 11.6197 10.7178C11.3069 10.7125 10.9836 10.8099 10.7583 11.1538C10.5893 10.8821 10.3223 10.7178 9.94794 10.7178C9.68682 10.7178 9.4304 10.7947 9.23031 11.0816V10.7794H8.69751V13.2298H9.23559V11.8714C9.23559 11.446 9.47147 11.2201 9.83528 11.2201C10.1891 11.2201 10.3687 11.4507 10.3687 11.8661V13.2298H10.9067V11.8714C10.9067 11.446 11.1532 11.2201 11.5064 11.2201C11.8708 11.2201 12.0451 11.4507 12.0451 11.8661V13.2298H12.5832Z" fill="white"/>
</svg>
