<svg width="38" height="24" viewBox="0 0 38 24" fill="none" xmlns="http://www.w3.org/2000/svg">
<rect x="0.25" width="37.5" height="24" rx="3" fill="#FF8C00"/>
<path d="M18.6995 13.2298H19.1699V14.2841H19.5098L20.1197 13.2298H20.6339L19.9019 14.4672V14.4759L20.6775 15.8262H20.1459L19.5184 14.6933H19.1788V15.8262H18.7081V13.2296H18.6995V13.2298ZM21.7319 13.9183C22.2979 13.9183 22.7599 14.3277 22.7599 14.894C22.7599 15.4692 22.3068 15.8701 21.7405 15.8701C21.174 15.8701 20.7209 15.4692 20.7209 14.894C20.7122 14.3191 21.1653 13.9183 21.7319 13.9183ZM23.1258 13.9616H23.5702V15.4256H24.1541V13.9619H24.5982V15.4256H25.1821V13.9619H25.6265V15.8262H23.1431V13.9616H23.1258ZM26.9425 13.9183C27.4738 13.9183 27.7701 14.3104 27.7701 14.7984C27.7686 14.8597 27.7628 14.9208 27.7528 14.9812H26.4718C26.498 15.3035 26.7507 15.4779 27.0297 15.4779C27.2211 15.4779 27.4129 15.3907 27.561 15.2775L27.7441 15.6087C27.5524 15.7739 27.2647 15.8787 26.9947 15.8787C26.3759 15.8787 25.9927 15.4343 25.9927 14.9027C25.9927 14.3191 26.3846 13.9183 26.9425 13.9183ZM27.9878 15.4343C28.2145 15.3994 28.38 15.2079 28.38 14.5455V13.9619H29.7395V15.8262H29.2775V14.3361H28.8244V14.5452C28.8244 15.3555 28.6067 15.8262 27.9878 15.8435V15.434V15.4343ZM31.0638 13.9183C31.5952 13.9183 31.8915 14.3104 31.8915 14.7984C31.89 14.8597 31.8842 14.9208 31.8741 14.9812H30.5931C30.6194 15.3035 30.8721 15.4779 31.151 15.4779C31.3425 15.4779 31.5342 15.3907 31.6824 15.2775L31.8655 15.6087C31.6737 15.7739 31.3861 15.8787 31.1161 15.8787C30.4975 15.8787 30.1141 15.4343 30.1141 14.9027C30.1141 14.3191 30.5062 13.9183 31.0638 13.9183ZM32.2749 13.9616H32.7367V14.6763H32.9634L33.4165 13.9619H33.9305L33.3379 14.8504V14.8594L34.0001 15.8262H33.4601L32.972 15.0684H32.7283V15.8262H32.266V13.9616H32.2747H32.2749ZM21.7319 15.4692C22.0368 15.4692 22.2895 15.2339 22.2895 14.8854C22.2895 14.5455 22.0368 14.3015 21.7316 14.3015C21.4269 14.3015 21.1829 14.5371 21.1829 14.8854C21.1829 15.2339 21.4266 15.4692 21.7319 15.4692ZM27.2997 14.659C27.2997 14.4149 27.1339 14.2668 26.9249 14.2668C26.6898 14.2668 26.5154 14.4236 26.4718 14.659H27.2997ZM31.421 14.659C31.421 14.4149 31.2556 14.2668 31.0465 14.2668C30.8109 14.2668 30.6367 14.4236 30.5931 14.659H31.421Z" fill="#2D3540"/>
<path d="M25.2083 7.5748V11.9751C25.2087 11.9912 25.2058 12.0072 25.1998 12.0222C25.1938 12.0371 25.1848 12.0507 25.1734 12.0621C25.1621 12.0735 25.1485 12.0825 25.1335 12.0885C25.1186 12.0944 25.1026 12.0973 25.0864 12.097H24.1889C24.1728 12.0973 24.1568 12.0944 24.1419 12.0885C24.1269 12.0825 24.1133 12.0735 24.1019 12.0621C24.0906 12.0507 24.0816 12.0371 24.0756 12.0222C24.0696 12.0072 24.0667 11.9912 24.0671 11.9751V7.5748C24.0667 7.55869 24.0696 7.54268 24.0756 7.52772C24.0816 7.51277 24.0906 7.49919 24.1019 7.4878C24.1133 7.4764 24.1269 7.46744 24.1419 7.46145C24.1568 7.45545 24.1728 7.45256 24.1889 7.45293H25.0864C25.1026 7.45256 25.1186 7.45545 25.1335 7.46145C25.1485 7.46744 25.1621 7.4764 25.1734 7.4878C25.1848 7.49919 25.1938 7.51277 25.1998 7.52772C25.2058 7.54268 25.2087 7.55869 25.2083 7.5748ZM32.2139 7.45293C32.2489 7.45293 32.2925 7.47026 32.3358 7.50519C32.3621 7.53119 32.3621 7.5748 32.3534 7.60973L30.872 12.0187C30.863 12.0415 30.8475 12.0612 30.8273 12.0751C30.8072 12.0891 30.7833 12.0968 30.7588 12.0972H29.9572C29.9049 12.0972 29.8613 12.071 29.844 12.0187L28.9809 9.44834L28.1183 12.0184C28.1093 12.0413 28.0937 12.0609 28.0736 12.0749C28.0535 12.0888 28.0296 12.0965 28.0051 12.097H27.2035C27.1512 12.097 27.1076 12.071 27.0903 12.0184L25.6089 7.60946C25.6002 7.5748 25.6002 7.53986 25.6262 7.50519C25.6438 7.47026 25.6874 7.45293 25.7221 7.45293H26.7241C26.7764 7.45293 26.82 7.48759 26.8376 7.53986L27.6303 10.1452L28.5018 7.53986C28.5108 7.51704 28.5263 7.49741 28.5465 7.48343C28.5666 7.46945 28.5905 7.46175 28.615 7.46132H29.3207C29.373 7.46132 29.4166 7.48759 29.4339 7.53986L30.3054 10.1452L31.0984 7.53986C31.1055 7.51518 31.1204 7.49342 31.1407 7.47778C31.1611 7.46214 31.1859 7.45343 31.2116 7.45293H32.2137H32.2139ZM33.73 7.45293C33.7909 7.45293 33.8432 7.50519 33.8519 7.5748V11.9751C33.8522 11.9912 33.8493 12.0072 33.8433 12.0222C33.8373 12.0371 33.8284 12.0507 33.817 12.0621C33.8056 12.0735 33.792 12.0825 33.7771 12.0885C33.7621 12.0944 33.7461 12.0973 33.73 12.097H32.8325C32.8164 12.0973 32.8004 12.0944 32.7854 12.0885C32.7705 12.0825 32.7569 12.0735 32.7455 12.0621C32.7341 12.0507 32.7251 12.0371 32.7191 12.0222C32.7131 12.0072 32.7102 11.9912 32.7106 11.9751V7.5748C32.7102 7.55869 32.7131 7.54268 32.7191 7.52772C32.7251 7.51277 32.7341 7.49919 32.7455 7.4878C32.7569 7.4764 32.7705 7.46744 32.7854 7.46145C32.8004 7.45545 32.8164 7.45256 32.8325 7.45293H33.73ZM23.5441 11.9404C23.5964 12.0014 23.5528 12.0883 23.4742 12.0883H22.3763C22.3547 12.0889 22.3333 12.0845 22.3136 12.0754C22.294 12.0663 22.2767 12.0529 22.2631 12.036L22.0803 11.8096C21.6968 12.0534 21.2435 12.2018 20.7644 12.2018C19.4228 12.2018 18.3335 11.1125 18.3335 9.77062C18.3335 8.4287 19.4228 7.33945 20.7644 7.33945C22.1063 7.33945 23.1956 8.4287 23.1956 9.77062C23.1956 10.25 23.0561 10.7031 22.8121 11.0863L23.5441 11.9402V11.9404ZM14.3687 14.0751C14.5954 14.1623 14.6826 14.5019 14.6999 14.65C14.7348 14.9203 14.6566 15.0248 14.5694 15.0248C14.4822 15.0248 14.36 14.9203 14.2295 14.7112C14.0987 14.5019 14.0464 14.2668 14.1163 14.1447C14.1596 14.0661 14.2555 14.0315 14.3689 14.0751H14.3687ZM13.0444 15.0598C13.1838 15.0598 13.3406 15.1207 13.4801 15.2426C13.7501 15.4692 13.8287 15.7306 13.6892 15.9223C13.6106 16.0182 13.4801 16.0791 13.332 16.0791C13.1838 16.0791 13.027 16.0269 12.9225 15.931C12.6785 15.7219 12.6089 15.3731 12.7654 15.1816C12.8266 15.1031 12.9225 15.0598 13.0444 15.0598ZM9.99491 17.5779C6.68357 17.5779 4 14.894 4 11.583C4 8.27189 6.68384 5.58832 9.99464 5.58832C13.3057 5.58832 15.9895 8.27216 15.9895 11.583C15.9895 12.7069 15.6759 13.7614 15.1446 14.6589C15.127 14.6849 15.0834 14.6763 15.0747 14.6413C14.8656 13.1689 13.9681 12.3583 12.6611 12.1146C12.5477 12.097 12.5303 12.0274 12.6785 12.01C13.0793 11.9751 13.6456 11.9838 13.9419 12.036C13.9592 11.8879 13.9681 11.7311 13.9681 11.5743C13.9681 9.38713 12.1905 7.60946 10.0033 7.60946C7.81642 7.60946 6.03875 9.38713 6.03875 11.5743C6.03875 13.7614 7.81642 15.5391 10.0036 15.5391H10.1864C10.1243 15.1854 10.098 14.8262 10.1078 14.4672C10.1168 14.2232 10.169 14.1883 10.2736 14.38C10.8225 15.3298 11.6068 16.1837 13.1402 16.5236C14.3949 16.8025 15.6497 17.1248 17.0003 18.8412C17.1221 18.9894 16.9393 19.1462 16.7998 19.0243C15.4233 17.8043 14.1685 17.4035 13.027 17.4035C11.746 17.4124 10.8748 17.5779 9.99464 17.5779H9.99491ZM21.3656 10.9644L20.8863 10.3805C20.8343 10.3196 20.8779 10.2237 20.9561 10.2237H21.9669C22.0191 10.0842 22.0454 9.92742 22.0454 9.77062C22.0454 9.04752 21.5051 8.42003 20.7644 8.42003C20.024 8.42003 19.4834 9.04752 19.4834 9.77062C19.4834 10.4937 20.024 11.1125 20.7644 11.1125C20.9735 11.1212 21.1828 11.0603 21.3656 10.9644Z" fill="white"/>
</svg>
