<svg width="38" height="24" viewBox="0 0 38 24" fill="none" xmlns="http://www.w3.org/2000/svg">
<rect x="0.5" width="37.5" height="24" rx="3" fill="#F7C700"/>
<path d="M5.69525 12.1643L4.8596 14.0412H4.25L5.16787 12.0343C4.95324 11.9248 4.77963 11.7638 4.64742 11.5514C4.51481 11.339 4.44871 11.0503 4.44871 10.685C4.44871 10.4293 4.48625 10.2045 4.56174 10.0103C4.63702 9.81646 4.73984 9.65528 4.8698 9.52737C4.99976 9.39945 5.15175 9.30376 5.32578 9.2397C5.50116 9.17545 5.68658 9.14298 5.87336 9.14381H6.66086V14.0412H6.13368V12.1643H5.69505H5.69525ZM6.13368 9.58245H5.85275C5.74768 9.58245 5.64486 9.60183 5.54469 9.6408C5.44452 9.67977 5.35495 9.74158 5.27743 9.82645C5.1999 9.91112 5.13706 10.0233 5.08912 10.1631C5.04097 10.3028 5.01731 10.4756 5.01731 10.6819C5.01731 10.8788 5.03873 11.0438 5.08218 11.1766C5.12564 11.3094 5.18501 11.4174 5.26029 11.4996C5.33578 11.582 5.42473 11.6404 5.52755 11.6748C5.63246 11.7095 5.74228 11.7268 5.85275 11.7263H6.13368V9.58225V9.58245ZM9.20209 10.5891V14.041H8.6745V12.4932H7.88006V14.0412H7.34595V10.5893H7.88006V12.0549H8.6745V10.5891H9.20209ZM11.9488 14.7192H11.4693V14.0412H9.9898V14.7192H9.51036V13.6028H9.72254C9.80027 13.4202 9.86188 13.2182 9.90758 12.9967C9.95307 12.7753 9.98857 12.547 10.0137 12.3116C10.0388 12.0765 10.0547 11.8368 10.0618 11.5926C10.0685 11.3482 10.072 11.112 10.072 10.8835V10.5891H11.6748V13.6028H11.9488V14.7192ZM11.1474 11.0273H10.5517V11.0889C10.5517 11.2711 10.548 11.4704 10.541 11.6867C10.534 11.9069 10.5191 12.1267 10.4966 12.3459C10.4739 12.5668 10.4419 12.7867 10.4007 13.005C10.363 13.2093 10.3056 13.4095 10.2293 13.6028H11.1474V11.0273ZM14.2707 13.8082C14.1573 13.8971 14.0301 13.9665 13.8941 14.0137C13.7525 14.0639 13.5948 14.0892 13.4214 14.0892C13.0651 14.0892 12.7844 13.9511 12.5788 13.6748C12.3733 13.3986 12.2707 12.9932 12.2707 12.4589C12.2707 12.1806 12.2899 11.9248 12.3288 11.6918C12.3678 11.4588 12.4292 11.2568 12.5139 11.0856C12.5981 10.9143 12.7067 10.7808 12.8393 10.685C12.9715 10.5891 13.129 10.5411 13.3116 10.5411C13.4532 10.5411 13.5833 10.5697 13.7023 10.6268C13.8208 10.6839 13.9212 10.7764 14.0036 10.9043C14.0856 11.032 14.1495 11.1974 14.1954 11.4006C14.2409 11.6038 14.2637 11.8515 14.2637 12.1439V12.4383H12.8254C12.8254 12.8312 12.8791 13.1278 12.9866 13.3288C13.0937 13.5298 13.2547 13.6301 13.4693 13.6301C13.6199 13.6301 13.7535 13.604 13.87 13.5514C13.9863 13.499 14.0789 13.4475 14.1474 13.3974L14.2707 13.8082ZM13.3118 10.9796C13.1474 10.9796 13.0311 11.072 12.9625 11.257C12.8938 11.4419 12.8503 11.6895 12.8322 12H13.716C13.716 11.854 13.709 11.7181 13.6953 11.5926C13.6847 11.4822 13.6628 11.3732 13.6303 11.2672C13.6005 11.1758 13.5595 11.105 13.507 11.0548C13.4811 11.03 13.4504 11.0105 13.4169 10.9975C13.3833 10.9846 13.3475 10.9784 13.3116 10.9793L13.3118 10.9796ZM15.3458 12.322V14.0412H14.8119V10.5893H15.3462V12.1849L16.175 10.5891H16.716L15.86 12.2124L16.8394 14.0412H16.2574L15.3462 12.322H15.3458ZM18.0927 14.089C17.7226 14.089 17.4327 13.9419 17.2228 13.6473C17.0127 13.3527 16.9076 12.9087 16.9076 12.315C16.9076 12.0457 16.9341 11.8015 16.9865 11.5822C17.0388 11.3631 17.1165 11.177 17.2191 11.024C17.3165 10.8761 17.4481 10.7539 17.6029 10.6678C17.7559 10.5834 17.9328 10.5411 18.1337 10.5411C18.2888 10.5411 18.4147 10.5583 18.5103 10.5925C18.6064 10.6268 18.6929 10.669 18.7709 10.719L18.6954 11.226C18.6177 11.1573 18.5313 11.0993 18.4383 11.0534C18.3418 11.0045 18.235 10.9792 18.1268 10.9796C17.935 10.9796 17.7775 11.0875 17.6543 11.3031C17.5309 11.519 17.4692 11.847 17.4692 12.2875C17.4692 12.7237 17.5209 13.0599 17.6233 13.2962C17.7261 13.5328 17.8871 13.6507 18.1064 13.6507C18.2386 13.6507 18.353 13.6283 18.4487 13.5834C18.5446 13.5389 18.6246 13.4881 18.6884 13.4316L18.8117 13.8288C18.7193 13.9071 18.6154 13.9706 18.5036 14.0172C18.3894 14.0651 18.2523 14.089 18.0927 14.089Z" fill="black"/>
<path d="M22.4423 14.0412H20.3463L20.2985 14.8563H20.0312V13.7672H20.1751C20.2938 13.6666 20.385 13.4883 20.4491 13.2321C20.5131 12.976 20.5631 12.6719 20.5998 12.3197C20.6364 11.9539 20.6615 11.5047 20.6751 10.9718C20.6888 10.4391 20.7002 9.8297 20.7092 9.1438H22.4215V13.7672H22.7573V14.8563H22.4901L22.4423 14.0412ZM22.0792 9.41779H21.0175C21.0102 9.96878 20.9965 10.5197 20.9765 11.0703C20.9581 11.5445 20.9352 11.96 20.9081 12.3173C20.8759 12.6886 20.8314 12.9942 20.7745 13.2347C20.7174 13.4753 20.6431 13.6528 20.5519 13.7672H22.0792V9.41779ZM23.4149 12.3699C23.4238 12.8469 23.4901 13.2105 23.6134 13.4606C23.7368 13.7107 23.9239 13.8356 24.175 13.8356C24.2893 13.8356 24.3897 13.8172 24.4764 13.7799C24.5631 13.7427 24.6363 13.6985 24.6957 13.6473C24.7642 13.5963 24.8234 13.5334 24.8738 13.4589L24.9764 13.7193C24.9215 13.7968 24.8554 13.8631 24.7779 13.9178C24.7093 13.9682 24.6249 14.0126 24.5245 14.0514C24.4237 14.0902 24.3052 14.1096 24.1683 14.1096C23.8029 14.1096 23.5336 13.9521 23.36 13.6371C23.1866 13.3218 23.0999 12.8814 23.0999 12.315C23.0999 12.0321 23.125 11.7797 23.1751 11.5581C23.2253 11.3368 23.2949 11.1485 23.3841 10.993C23.473 10.838 23.5791 10.7202 23.7023 10.6403C23.8224 10.5614 23.9631 10.5198 24.1067 10.5205C24.2572 10.5205 24.3919 10.5593 24.5106 10.6368C24.6294 10.7147 24.7275 10.831 24.8052 10.9863C24.8828 11.1415 24.9376 11.3345 24.9697 11.5651C25.0015 11.7956 25.0039 12.0641 24.9764 12.3699H23.4149ZM24.1067 10.7945C23.9239 10.7945 23.7676 10.9069 23.6374 11.1319C23.5073 11.3568 23.4353 11.6848 23.4216 12.1165H24.6751C24.7026 11.6575 24.6581 11.3227 24.5416 11.1113C24.4252 10.9002 24.2801 10.7945 24.1067 10.7945ZM27.0861 12.3905H25.9077V14.041H25.586V10.5893H25.9077V12.1167H27.0861V10.5891H27.4079V14.041H27.0861V12.3905ZM28.1678 10.5891H28.49V11.8699H28.7434C29.072 11.8699 29.3346 11.959 29.5309 12.1371C29.7273 12.315 29.8257 12.5845 29.8257 12.9452C29.8257 13.3106 29.7228 13.5846 29.5172 13.7672C29.3118 13.9498 29.0469 14.0412 28.7228 14.0412H28.1678V10.5893V10.5891ZM28.49 12.1233V13.7878H28.6954C28.9374 13.7878 29.1336 13.7225 29.2844 13.5926C29.4354 13.4624 29.5105 13.249 29.5105 12.952C29.5105 12.6598 29.4419 12.4487 29.305 12.3185C29.1681 12.1883 28.9763 12.1233 28.7297 12.1233H28.49ZM30.6956 10.863V14.0412H30.3806V10.5893H31.8393V10.863H30.6956ZM33.9419 11.6369C33.9419 11.5457 33.9441 11.4622 33.9488 11.387C33.9533 11.3117 33.9601 11.2374 33.9692 11.1646H33.9488C33.9258 11.2421 33.8984 11.3162 33.8666 11.387C33.8348 11.4578 33.8003 11.5318 33.7638 11.6095L32.6407 14.0412H32.3665V10.5893H32.668V12.9864C32.6685 13.149 32.6594 13.3114 32.6407 13.4728H32.6611C32.6839 13.3951 32.7113 13.3186 32.7433 13.2433C32.7751 13.1678 32.8094 13.0913 32.8461 13.0138L33.9692 10.5891H34.2502V14.041H33.9419V11.6373V11.6369Z" fill="black"/>
</svg>
