<svg width="20" height="20" viewBox="0 0 20 20" fill="none" xmlns="http://www.w3.org/2000/svg">
<g clip-path="url(#clip0_1_67)">
<path d="M9.1416 1.66666H7.47493C3.30827 1.66666 1.6416 3.33332 1.6416 7.49999V12.5C1.6416 16.6667 3.30827 18.3333 7.47493 18.3333H12.4749C16.6416 18.3333 18.3083 16.6667 18.3083 12.5V10.8333" stroke="#131313" stroke-width="1.5" stroke-linecap="round" stroke-linejoin="round"/>
<path d="M18.2334 2.96666C17.2084 5.52499 14.6334 9.00832 12.4834 10.7333L11.1667 11.7833C11 11.9083 10.8334 12.0083 10.6417 12.0833C10.6417 11.9583 10.6334 11.8333 10.6167 11.7C10.5417 11.1417 10.2917 10.6167 9.8417 10.175C9.38337 9.71666 8.83337 9.45832 8.2667 9.38332C8.13337 9.37499 8.00003 9.36666 7.8667 9.37499C7.9417 9.16666 8.05003 8.97499 8.1917 8.81666L9.2417 7.49999C10.9667 5.34999 14.4584 2.75832 17.0084 1.73332C17.4 1.58332 17.7834 1.69999 18.025 1.94166C18.275 2.19166 18.3917 2.57499 18.2334 2.96666Z" stroke="#131313" stroke-width="1.5" stroke-linecap="round" stroke-linejoin="round"/>
<path d="M10.6499 12.075C10.6499 12.8083 10.3666 13.5083 9.84158 14.0417C9.43325 14.45 8.88325 14.7333 8.22491 14.8167L6.58325 14.9917C5.69158 15.0917 4.92492 14.3333 5.02492 13.425L5.19991 11.7833C5.35825 10.325 6.57491 9.39167 7.87491 9.36667C8.00825 9.35834 8.14158 9.36667 8.27492 9.37501C8.84158 9.45001 9.39158 9.70834 9.84991 10.1667C10.2999 10.6167 10.5499 11.1333 10.6249 11.6917C10.6416 11.825 10.6499 11.9583 10.6499 12.075Z" stroke="#131313" stroke-width="1.5" stroke-linecap="round" stroke-linejoin="round"/>
<path d="M13.1832 9.98335C13.1832 8.24168 11.7749 6.82501 10.0249 6.82501" stroke="#131313" stroke-width="1.5" stroke-linecap="round" stroke-linejoin="round"/>
</g>
<defs>
<clipPath id="clip0_1_67">
<rect width="20" height="20" fill="white"/>
</clipPath>
</defs>
</svg>
