<svg width="20" height="20" viewBox="0 0 20 20" fill="none" xmlns="http://www.w3.org/2000/svg">
<path d="M1.66675 7.49999V5.41666C1.66675 3.34166 3.34175 1.66666 5.41675 1.66666H7.50008" stroke="#131313" stroke-width="1.5" stroke-linecap="round" stroke-linejoin="round"/>
<path d="M12.5 1.66666H14.5833C16.6583 1.66666 18.3333 3.34166 18.3333 5.41666V7.49999" stroke="#131313" stroke-width="1.5" stroke-linecap="round" stroke-linejoin="round"/>
<path d="M18.3333 13.3333V14.5833C18.3333 16.6583 16.6583 18.3333 14.5833 18.3333H13.3333" stroke="#131313" stroke-width="1.5" stroke-linecap="round" stroke-linejoin="round"/>
<path d="M7.50008 18.3333H5.41675C3.34175 18.3333 1.66675 16.6583 1.66675 14.5833V12.5" stroke="#131313" stroke-width="1.5" stroke-linecap="round" stroke-linejoin="round"/>
<path d="M8.74992 5.83334V7.50001C8.74992 8.33334 8.33325 8.75001 7.49992 8.75001H5.83325C4.99992 8.75001 4.58325 8.33334 4.58325 7.50001V5.83334C4.58325 5.00001 4.99992 4.58334 5.83325 4.58334H7.49992C8.33325 4.58334 8.74992 5.00001 8.74992 5.83334Z" stroke="#131313" stroke-width="1.5" stroke-linecap="round" stroke-linejoin="round"/>
<path d="M15.4167 5.83334V7.50001C15.4167 8.33334 15 8.75001 14.1667 8.75001H12.5C11.6667 8.75001 11.25 8.33334 11.25 7.50001V5.83334C11.25 5.00001 11.6667 4.58334 12.5 4.58334H14.1667C15 4.58334 15.4167 5.00001 15.4167 5.83334Z" stroke="#131313" stroke-width="1.5" stroke-linecap="round" stroke-linejoin="round"/>
<path d="M8.74992 12.5V14.1667C8.74992 15 8.33325 15.4167 7.49992 15.4167H5.83325C4.99992 15.4167 4.58325 15 4.58325 14.1667V12.5C4.58325 11.6667 4.99992 11.25 5.83325 11.25H7.49992C8.33325 11.25 8.74992 11.6667 8.74992 12.5Z" stroke="#131313" stroke-width="1.5" stroke-linecap="round" stroke-linejoin="round"/>
<path d="M15.4167 12.5V14.1667C15.4167 15 15 15.4167 14.1667 15.4167H12.5C11.6667 15.4167 11.25 15 11.25 14.1667V12.5C11.25 11.6667 11.6667 11.25 12.5 11.25H14.1667C15 11.25 15.4167 11.6667 15.4167 12.5Z" stroke="#131313" stroke-width="1.5" stroke-linecap="round" stroke-linejoin="round"/>
</svg>
