<svg width="20" height="20" viewBox="0 0 20 20" fill="none" xmlns="http://www.w3.org/2000/svg">
<path d="M7.08325 11.875C7.08325 13.475 8.39992 14.7917 9.99992 14.7917C11.5999 14.7917 12.9166 13.475 12.9166 11.875" stroke="#131313" stroke-width="1.5" stroke-miterlimit="10" stroke-linecap="round" stroke-linejoin="round"/>
<path d="M7.34162 1.66667L4.32495 4.69167" stroke="#131313" stroke-width="1.5" stroke-miterlimit="10" stroke-linecap="round" stroke-linejoin="round"/>
<path d="M12.6582 1.66667L15.6749 4.69167" stroke="#131313" stroke-width="1.5" stroke-miterlimit="10" stroke-linecap="round" stroke-linejoin="round"/>
<path d="M1.66675 6.54167C1.66675 5 2.49175 4.875 3.51675 4.875H16.4834C17.5084 4.875 18.3334 5 18.3334 6.54167C18.3334 8.33333 17.5084 8.20833 16.4834 8.20833H3.51675C2.49175 8.20833 1.66675 8.33333 1.66675 6.54167Z" stroke="#131313" stroke-width="1.5"/>
<path d="M2.91675 8.33333L4.09175 15.5333C4.35841 17.15 5.00008 18.3333 7.38341 18.3333H12.4084C15.0001 18.3333 15.3834 17.2 15.6834 15.6333L17.0834 8.33333" stroke="#131313" stroke-width="1.5" stroke-linecap="round"/>
</svg>
